<svg viewBox="8 8 215 78" fill="none" xmlns="http://www.w3.org/2000/svg" role="img" aria-label="NexGard">
  <path
    d="M57.5128 52.2325L57.5376 30.5368C57.5288 26.7257 56.8329 18.9367 58.5405 15.583C61.3933 10.5182 69.0215 9.93142 72.6128 14.4237C75.2939 17.7772 74.538 23.3081 74.5627 27.4681C74.5835 33.9918 74.5706 40.5156 74.5244 47.0391L74.5703 65.9645C74.5574 68.6324 74.5108 71.3278 74.4814 73.9936C74.4263 79.0172 71.7987 81.5908 66.9277 82.6437C59.9252 82.8813 58.1533 79.8299 54.4698 74.8637C52.6591 72.4099 50.8346 69.9662 48.9964 67.5329C42.8588 59.4021 35.1967 49.6985 29.5153 41.4638C29.6857 43.1191 29.5867 45.3402 29.5928 47.0742L29.6387 57.5335L29.6814 68.5401C29.687 70.7194 29.6708 72.8824 29.5659 74.9855C29.3864 78.5859 26.1825 82.2846 22.468 82.5877C10.6056 83.556 12.3491 72.187 12.3654 64.9374L12.3724 46.3247L12.3636 29.1842C12.3467 21.3224 10.7446 12.4238 21.353 11.4156C23.6314 11.0724 27.7776 12.7053 29.3201 14.3584C33.063 18.5936 36.5418 23.4153 39.8365 28.0265C45.5918 36.0818 51.9758 44.052 57.5128 52.2325Z"
    fill="#FFFFFF"
  />
  <path
    d="M95.3096 11.4394L117.046 11.4022C119.728 11.4008 128.554 11.2008 130.799 11.8073C132.939 12.4017 134.758 13.814 135.86 15.7375C137.063 17.8802 137.337 20.6542 136.648 23.0061C135.928 25.4609 133.976 27.3716 131.581 28.2353C128.35 29.4013 114.081 28.8098 109.781 28.7503C108.157 28.7279 105.819 28.3737 104.375 29.1769C103.862 30.2069 104.051 37.6907 104.161 39.1517L117.1 39.1376C119.052 39.1277 121.453 39.1936 123.389 39.1234C133.33 38.7632 135.381 53.0168 125.617 55.0158C122.934 55.5652 120.169 55.1502 117.433 55.2112C113.005 55.3101 108.53 55.0925 104.1 55.1956C104.012 58.3163 104.076 61.7513 104.069 64.8971C104.092 65.1791 104.255 65.8178 104.612 65.8573C106.224 66.0358 107.884 65.9746 109.506 65.9674L121.849 65.9003C125.236 65.8775 130.154 65.3748 132.981 67.3284C134.84 68.6258 136.11 70.602 136.515 72.8274C136.905 75.042 136.446 77.4667 135.139 79.3226C132.319 83.3279 127.517 82.6154 123.23 82.5955L112.219 82.5678L101.254 82.5865C98.8514 82.6032 96.4723 82.7064 94.073 82.4961C90.5834 82.3582 87.0724 79.0778 86.7922 75.5655C86.5395 72.3966 86.5981 68.5216 86.6203 65.2594L86.6743 48.6767L86.6193 29.4688C86.6289 21.6359 84.9486 12.7329 95.3096 11.4394Z"
    fill="#FFFFFF"
  />
  <path
    d="M181.687 12.2773C190.756 10.2264 192.206 28.853 184.05 32.4162C175.347 34.4012 172.932 15.8525 181.687 12.2773Z"
    fill="#38BDF8"
  />
  <path
    d="M199.784 19.3249C208.781 18.1272 204.695 38.6926 196.327 39.5994C186.413 39.742 190.237 21.0681 199.784 19.3249Z"
    fill="#38BDF8"
  />
  <path
    d="M167.138 16.8059C174.424 16.2463 176.363 31.2062 171.084 34.7022C170.731 34.9363 170.182 35.1346 169.785 35.2824C162.236 35.9849 160.935 22.9243 164.628 18.4199C165.392 17.488 166.042 17.1887 167.138 16.8059Z"
    fill="#38BDF8"
  />
  <path
    d="M207.689 36.8894C215.867 36.9446 212.226 52.3158 203.546 53.8275C194.879 53.7037 199.202 37.8712 207.689 36.8894Z"
    fill="#38BDF8"
  />
  <path
    d="M153.794 30.1626C155.292 29.989 157.157 30.2818 158.242 31.4166C161.971 35.3184 165.274 39.6843 168.896 43.7037C169.872 44.7883 172.52 48.0795 172.52 48.0795C172.52 48.0795 176.65 43.9164 177.513 43.2341C183.876 38.6418 187.775 44.5675 190.827 48.3898L196.181 55.0785C199.185 58.791 202.491 62.3835 205.518 66.1236C207.65 68.7573 208.601 70.447 208.282 74.031C208.057 76.5543 206.76 79.1026 204.799 80.6952C203.015 82.1546 200.725 82.8315 198.442 82.5743C195.344 82.226 194.005 80.4164 192.222 78.167C189.436 74.5374 183.426 67.5137 183.426 67.5137C183.426 67.5137 181.843 65.3858 179.772 67.5137C178.829 68.5386 168.087 78.5731 168.087 78.5731C168.087 78.5731 164.555 82.3829 161.56 82.6285C159.386 82.8128 157.233 82.0857 155.606 80.618C153.778 78.9777 152.679 76.6643 152.559 74.198C152.26 69.1584 155.523 66.2961 158.532 62.8242L164.358 56.0942C160.469 51.7698 156.54 47.5535 152.422 43.1725C149.011 39.5426 147.058 35.698 151.4 31.3335C152.037 30.6942 152.929 30.4177 153.794 30.1626Z"
    fill="#FFFFFF"
  />
</svg>
