<svg viewBox="12 8 70 78" fill="none" xmlns="http://www.w3.org/2000/svg" role="img" aria-label="NexGard">
  <path
    d="M57.5128 52.2325L57.5376 30.5368C57.5288 26.7257 56.8329 18.9367 58.5405 15.583C61.3933 10.5182 69.0215 9.93142 72.6128 14.4237C75.2939 17.7772 74.538 23.3081 74.5627 27.4681C74.5835 33.9918 74.5706 40.5156 74.5244 47.0391L74.5703 65.9645C74.5574 68.6324 74.5108 71.3278 74.4814 73.9936C74.4263 79.0172 71.7987 81.5908 66.9277 82.6437C59.9252 82.8813 58.1533 79.8299 54.4698 74.8637C52.6591 72.4099 50.8346 69.9662 48.9964 67.5329C42.8588 59.4021 35.1967 49.6985 29.5153 41.4638C29.6857 43.1191 29.5867 45.3402 29.5928 47.0742L29.6387 57.5335L29.6814 68.5401C29.687 70.7194 29.6708 72.8824 29.5659 74.9855C29.3864 78.5859 26.1825 82.2846 22.468 82.5877C10.6056 83.556 12.3491 72.187 12.3654 64.9374L12.3724 46.3247L12.3636 29.1842C12.3467 21.3224 10.7446 12.4238 21.353 11.4156C23.6314 11.0724 27.7776 12.7053 29.3201 14.3584C33.063 18.5936 36.5418 23.4153 39.8365 28.0265C45.5918 36.0818 51.9758 44.052 57.5128 52.2325Z"
    fill="#0F172A"
  />
</svg>
